<?xml version="1.0" encoding="UTF-8" standalone="no"?>
<svg
   width="48"
   height="48"
   fill="none"
   version="1.1"
   id="svg48"
   sodipodi:docname="cadastr48.svg"
   inkscape:version="1.2.2 (b0a8486541, 2022-12-01)"
   inkscape:export-filename="cadastr.png"
   inkscape:export-xdpi="174.08669"
   inkscape:export-ydpi="174.08669"
   xmlns:inkscape="http://www.inkscape.org/namespaces/inkscape"
   xmlns:sodipodi="http://sodipodi.sourceforge.net/DTD/sodipodi-0.dtd"
   xmlns="http://www.w3.org/2000/svg"
   xmlns:svg="http://www.w3.org/2000/svg">
  <sodipodi:namedview
     id="namedview50"
     pagecolor="#ffffff"
     bordercolor="#666666"
     borderopacity="1.0"
     inkscape:pageshadow="2"
     inkscape:pageopacity="0.0"
     inkscape:pagecheckerboard="0"
     showgrid="false"
     units="px"
     inkscape:zoom="11.268582"
     inkscape:cx="5.3245386"
     inkscape:cy="14.509368"
     inkscape:window-width="1920"
     inkscape:window-height="1011"
     inkscape:window-x="0"
     inkscape:window-y="32"
     inkscape:window-maximized="1"
     inkscape:current-layer="svg48"
     inkscape:showpageshadow="2"
     inkscape:deskcolor="#d1d1d1" />
  <path
     d="m 22.850852,3 h 1.321816 l 1.416231,0.1385008 c 3.446165,0.3231677 6.797915,1.5696719 9.653982,3.531762 0.849739,0.6232522 1.699479,1.2234208 2.431198,1.9851733 H 22.803644 c -0.660909,0.023083 -1.298212,0.092333 -1.95912,0.1846674 -1.085779,0.092333 -2.100745,0.5540018 -3.092108,0.9695032 -1.251005,0.5770853 -2.525614,1.1772543 -3.54058,2.0775073 -1.014965,0.87717 -1.95912,1.82359 -2.761651,2.862343 -0.660909,0.923336 -1.15659,1.939006 -1.6522716,2.954676 -0.4012657,0.969504 -0.8261353,1.96209 -0.9441546,3.000843 -0.070811,0.761753 -0.165227,1.500423 -0.165227,2.239093 V 38.063702 H 24.149063 c 1.227403,-0.06926 2.502011,-0.09234 3.682203,-0.554002 1.132987,-0.392417 2.195161,-0.923336 3.257334,-1.477338 0.472078,-0.253917 0.944155,-0.692502 1.557857,-0.646336 h 7.364404 c -0.236038,0.461668 -0.566492,0.80792 -0.873342,1.154171 A 20.440948,19.990234 0 0 1 24.267083,43.719138 H 3 V 22.713235 A 20.81861,20.359569 0 0 1 11.402976,6.9241801 20.181307,19.736317 0 0 1 21.55264,3.0923336 C 21.977509,3.0461668 22.402379,3 22.850852,3 Z"
     fill="url(#a)"
     id="path2"
     style="fill:url(#a);stroke-width:2.33422" />
  <path
     d="m 21.363808,11.448529 c 0.542888,-0.253918 1.180193,-0.161584 1.746686,-0.184668 h 21.927992 c 0.141621,0 0.330453,0 0.448473,0.115416 0.0236,0.300085 -0.236038,0.484752 -0.401266,0.692503 -1.864705,1.82359 -3.682204,3.693346 -5.523304,5.54002 -0.519284,0.438585 -0.920551,1.084919 -1.605063,1.338838 -0.590096,0.253917 -1.27461,0.184667 -1.911914,0.207749 h -21.55033 c -0.236038,-0.02308 -0.566492,0 -0.613699,-0.276999 0,-0.161584 0.118018,-0.277002 0.236038,-0.392418 1.982726,-1.962091 3.941846,-3.970347 5.948175,-5.932439 0.401265,-0.4155 0.755322,-0.900252 1.298212,-1.108002 z"
     fill="url(#b)"
     id="path4"
     style="fill:url(#b);stroke-width:2.33422" />
  <path
     d="m 41.851964,18.973721 c 0.283247,-0.277002 0.519284,-0.646337 0.873343,-0.831003 0.708116,-0.04617 1.416232,0 2.124347,0 0.212436,0 0.472077,-0.06926 0.637305,0.09234 0.0236,0.300084 -0.236038,0.484753 -0.401266,0.692503 l -6.467458,6.55569 c -0.472079,0.415496 -1.085779,0.600162 -1.69948,0.600162 H 14.495082 c -0.18883,0 -0.401265,0 -0.542888,-0.115423 -0.165227,-0.230834 0.0472,-0.461668 0.188831,-0.600169 l 3.42256,-3.439429 c 0.118023,-0.138507 0.306851,-0.184666 0.495682,-0.161583 h 18.552639 c 0.849739,0 1.65227,-0.207749 2.431199,-0.461668 1.180192,-0.461668 1.95912,-1.477339 2.832462,-2.308342 z"
     fill="url(#c)"
     id="path6"
     style="fill:url(#c);stroke-width:2.33422" />
  <path
     d="m 42.748911,24.929241 c 0.141621,-0.138508 0.354058,-0.115423 0.542889,-0.115423 h 1.746686 c 0.141621,0 0.330453,-0.02308 0.448473,0.115423 0.04722,0.300084 -0.236038,0.484753 -0.401266,0.692502 l -6.467458,6.55569 c -0.472079,0.415501 -1.085779,0.600168 -1.69948,0.600168 H 14.495082 c -0.236038,0 -0.566492,0 -0.613699,-0.277001 0,-0.184667 0.141622,-0.323167 0.259642,-0.461668 1.085777,-1.038755 2.124347,-2.100589 3.186522,-3.162428 0.165228,-0.20775 0.401266,-0.253917 0.637304,-0.230834 H 36.32866 c 0.991362,0.04618 1.959121,-0.161583 2.856067,-0.507835 1.062174,-0.461669 1.77029,-1.385005 2.596425,-2.16984 z"
     fill="url(#d)"
     id="path8"
     style="fill:url(#d);stroke-width:2.33422" />
  <defs
     id="defs46">
    <linearGradient
       id="a"
       x1="18.52"
       y1="5.4299998"
       x2="3.3099999"
       y2="20.950001"
       gradientUnits="userSpaceOnUse"
       gradientTransform="matrix(2.3603867,0,0,2.3083412,-4.0811599,-3.9250235)">
      <stop
         stop-color="#4AFFD8"
         id="stop10" />
      <stop
         offset=".29"
         stop-color="#00CAFF"
         id="stop12" />
      <stop
         offset=".68"
         stop-color="#2D93FF"
         id="stop14" />
      <stop
         offset="1"
         stop-color="#007CFF"
         id="stop16" />
    </linearGradient>
    <linearGradient
       id="b"
       x1="18.52"
       y1="5.4299998"
       x2="3.3099999"
       y2="20.950001"
       gradientUnits="userSpaceOnUse"
       gradientTransform="matrix(2.3603867,0,0,2.3083412,-4.0811599,-3.9250235)">
      <stop
         stop-color="#4AFFD8"
         id="stop19" />
      <stop
         offset=".29"
         stop-color="#00CAFF"
         id="stop21" />
      <stop
         offset=".68"
         stop-color="#2D93FF"
         id="stop23" />
      <stop
         offset="1"
         stop-color="#007CFF"
         id="stop25" />
    </linearGradient>
    <linearGradient
       id="c"
       x1="18.52"
       y1="5.4299998"
       x2="3.3099999"
       y2="20.950001"
       gradientUnits="userSpaceOnUse"
       gradientTransform="matrix(2.3603867,0,0,2.3083412,-4.0811599,-3.9250235)">
      <stop
         stop-color="#4AFFD8"
         id="stop28" />
      <stop
         offset=".29"
         stop-color="#00CAFF"
         id="stop30" />
      <stop
         offset=".68"
         stop-color="#2D93FF"
         id="stop32" />
      <stop
         offset="1"
         stop-color="#007CFF"
         id="stop34" />
    </linearGradient>
    <linearGradient
       id="d"
       x1="18.52"
       y1="5.4299998"
       x2="3.3099999"
       y2="20.950001"
       gradientUnits="userSpaceOnUse"
       gradientTransform="matrix(2.3603867,0,0,2.3083412,-4.0811599,-3.9250235)">
      <stop
         stop-color="#4AFFD8"
         id="stop37" />
      <stop
         offset=".29"
         stop-color="#00CAFF"
         id="stop39" />
      <stop
         offset=".68"
         stop-color="#2D93FF"
         id="stop41" />
      <stop
         offset="1"
         stop-color="#007CFF"
         id="stop43" />
    </linearGradient>
  </defs>
</svg>
