<?xml version="1.0" encoding="UTF-8" standalone="no"?>
<!-- Created with Inkscape (http://www.inkscape.org/) -->

<svg
   width="48"
   height="48"
   viewBox="0 0 12.7 12.7"
   version="1.1"
   id="svg12"
   inkscape:version="1.2.2 (b0a8486541, 2022-12-01)"
   sodipodi:docname="zso48.svg"
   xmlns:inkscape="http://www.inkscape.org/namespaces/inkscape"
   xmlns:sodipodi="http://sodipodi.sourceforge.net/DTD/sodipodi-0.dtd"
   xmlns="http://www.w3.org/2000/svg"
   xmlns:svg="http://www.w3.org/2000/svg">
  <sodipodi:namedview
     id="namedview14"
     pagecolor="#ffffff"
     bordercolor="#000000"
     borderopacity="0.25"
     inkscape:showpageshadow="true"
     inkscape:pageopacity="0.0"
     inkscape:pagecheckerboard="false"
     inkscape:deskcolor="#d1d1d1"
     inkscape:document-units="mm"
     showgrid="false"
     showborder="true"
     showguides="true"
     inkscape:zoom="13.096207"
     inkscape:cx="8.3611996"
     inkscape:cy="20.693015"
     inkscape:window-width="1920"
     inkscape:window-height="1080"
     inkscape:window-x="0"
     inkscape:window-y="0"
     inkscape:window-maximized="0"
     inkscape:current-layer="layer1" />
  <defs
     id="defs9" />
  <g
     inkscape:label="Слой 1"
     inkscape:groupmode="layer"
     id="layer1">
    <path
       id="rect292"
       style="fill:#808000;stroke-width:0.385098"
       d="m 3.8227156,6.3035984 c -0.4058543,0 -0.7329121,0.3222482 -0.7329121,0.7227542 v 1.4459847 c 0,0.400506 0.3270578,0.7227542 0.7329121,0.7227542 h 1.4648908 c 0.4058543,0 0.7324453,-0.3222482 0.7324453,-0.7227542 V 7.0263526 c 0,-0.400506 -0.326591,-0.7227542 -0.7324453,-0.7227542 z M 4.5425568,6.9949286 A 0.72268618,0.73708294 0 0 1 5.28854,7.6986379 l 9.336e-4,0.032852 A 0.72268618,0.73708294 0 0 1 4.5747675,8.4685283 0.72268618,0.73708294 0 0 1 3.8441895,7.7481546 0.72268618,0.73708294 0 0 1 4.5425568,6.9949286 Z" />
    <path
       style="fill:#d45500;stroke-width:0.0206551"
       d="M 2.3771459,12.040986 C 2.1655589,12.007084 2.0601643,11.977561 1.8886888,11.904159 1.2743728,11.641196 0.86262998,11.064334 0.69711332,10.234732 0.65827229,10.040053 0.65140927,9.9377083 0.65114204,9.5491852 0.6509566,9.2795645 0.6616885,9.0201993 0.67734065,8.9160275 0.88494828,7.534309 1.4352725,6.1955393 2.4720901,5.0324942 2.8702565,4.585853 3.3904659,4.0486134 4.320108,3.4261855 4.4679497,3.3272003 3.5405426,4.2859307 3.1174438,4.7717161 2.3741092,5.6251837 1.9949221,6.3855591 1.7411837,7.429037 1.3996412,8.8336018 1.5880352,9.9666701 2.2703002,10.611329 c 0.2957181,0.279419 0.6412028,0.44421 1.061397,0.506272 0.2288816,0.03381 0.694504,0.01347 0.9294131,-0.04059 0.666807,-0.153457 1.3453167,-0.517968 2.0156646,-1.0828614 0.1632523,-0.137571 0.064188,-0.010964 -0.2386935,0.3050584 -0.584859,0.610232 -1.1282171,1.028407 -1.7393793,1.338647 -0.6933989,0.351985 -1.3634408,0.492556 -1.9215562,0.403131 z"
       id="path867"
       sodipodi:nodetypes="ssssssssssccssss" />
    <path
       style="fill:#0000ff;stroke-width:0.0202031"
       d="m 6.0957944,11.175991 c 7.317e-4,-0.0084 0.064454,-0.07493 0.1416051,-0.147926 C 6.6149581,10.670836 7.1230502,10.096348 7.4927634,9.608654 8.4361319,8.3642427 9.0799498,7.1101675 9.4109105,5.8723472 9.4780734,5.6211537 9.500228,5.4908947 9.5427961,5.0969291 9.6001509,4.5661005 9.6022637,4.311386 9.5518815,4.0011448 9.3853026,2.9753904 8.7273578,2.2201795 7.7270695,1.9065641 7.5346102,1.8462232 6.9972725,1.7825929 6.7244889,1.7878407 5.810893,1.8054166 4.7671834,2.1532267 3.777414,2.7699363 3.6056977,2.8769299 3.4594546,2.9639673 3.4524295,2.9633526 3.405695,2.9592639 4.4129842,2.1645758 4.7364094,1.9503731 5.5270707,1.4267222 6.30898,1.070366 7.1010848,0.87266942 8.1074549,0.62149566 9.0789528,0.7145721 9.7433212,1.1258146 10.181328,1.3969398 10.579914,1.892722 10.769052,2.4016718 c 0.08187,0.2203026 0.16714,0.5935956 0.197657,0.8653011 0.02085,0.1856488 0.01893,0.3148092 -0.01121,0.7515457 -0.05362,0.777174 -0.158861,1.2332786 -0.467124,2.0244469 -0.5624309,1.443497 -1.5692361,2.8651409 -2.8638075,4.0437945 -0.2607691,0.237419 -0.5271093,0.435024 -1.0883854,0.807502 -0.201308,0.133594 -0.383049,0.255055 -0.4038689,0.269915 -0.020819,0.01486 -0.037256,0.02018 -0.036524,0.01181 z"
       id="path873" />
  </g>
</svg>
